<svg height="512pt" viewBox="-19 0 512 512.00026" width="512pt" xmlns="http://www.w3.org/2000/svg"><path d="m336.089844 225.003906c0-3.21875-1.28125-6.859375-3.773438-9.757812l-73.449218-84.832032c-3.097657-3.578124-7.40625-5.375-11.761719-5.375-10.34375 0-83.375 0-93.769531 0-8.597657 0-15.554688 6.960938-15.554688 15.554688v230.808594c0 8.597656 6.957031 15.554687 15.554688 15.554687h167.21875c8.597656 0 15.554687-6.957031 15.554687-15.554687 0-.222656.007813-146.175782-.019531-146.398438zm-31.089844 130.84375h-136.109375v-199.695312h62.664063v69.269531c0 8.59375 6.957031 15.550781 15.550781 15.550781h57.894531zm-18.5-145.980468h-23.839844v-27.53125zm0 0"/><path d="m458.464844 236.621094h-38.144532l10.777344-10.777344c14.558594-14.5625-7.472656-36.527344-21.996094-21.996094l-35.859374 35.855469c-7.832032 5.828125-8.292969 17.167969-1.730469 23.730469l37.070312 37.070312c3.035157 3.039063 7.015625 4.558594 10.996094 4.558594 13.734375 0 20.828125-16.726562 11-26.554688l-10.777344-10.777343h38.664063c20.554687 0 20.578125-31.109375 0-31.109375zm0 0"/><path d="m102.378906 240.917969-37.070312-37.070313c-14.53125-14.535156-36.546875 7.449219-21.996094 21.996094l10.777344 10.777344h-38.667969c-20.550781 0-20.574219 31.109375 0 31.109375h38.148437l-10.777343 10.777343c-14.808594 14.8125 7.761719 36.238282 21.996093 22l35.855469-35.855468c7.835938-5.832032 8.296875-17.171875 1.734375-23.734375zm0 0"/><path d="m226.890625 100.644531c5.792969 7.789063 17.144531 8.324219 23.730469 1.734375l37.074218-37.070312c14.558594-14.5625-7.472656-36.527344-22-22l-10.777343 10.777344v-38.664063c0-20.550781-31.105469-20.574219-31.105469 0v38.148437l-10.78125-10.777343c-14.53125-14.535157-36.542969 7.449219-21.996094 21.996093zm0 0"/><path d="m251.839844 411.355469c-5.816406-7.820313-17.15625-8.3125-23.730469-1.734375l-37.074219 37.070312c-14.558594 14.5625 7.472656 36.523438 22 21.996094l10.777344-10.777344v38.667969c0 20.550781 31.109375 20.574219 31.109375 0v-38.148437l10.777344 10.777343c14.53125 14.53125 36.550781-7.445312 21.996093-21.996093zm0 0"/></svg>